<svg version="1.1" xmlns="http://www.w3.org/2000/svg" xmlns:xlink="http://www.w3.org/1999/xlink" x="0px" y="0px" viewBox="0 0 24 24" enable-background="new 0 0 24 24">
	<g id="Layer_1">
		<path d="M5.643,19.225c-0.254,0-0.508-0.097-0.702-0.291c-0.387-0.387-0.387-1.016,0-1.402l12.59-12.59
			c0.387-0.387,1.016-0.387,1.402,0c0.388,0.388,0.388,1.016,0,1.403L6.344,18.934C6.15,19.128,5.896,19.225,5.643,19.225z" fill="#5a5a5a"/>
		<path d="M18.232,19.225c-0.254,0-0.508-0.097-0.701-0.291L4.941,6.344c-0.387-0.388-0.387-1.016,0-1.403
			c0.388-0.387,1.016-0.387,1.403,0l12.589,12.59c0.388,0.387,0.388,1.016,0,1.402C18.74,19.128,18.486,19.225,18.232,19.225z" fill="#5a5a5a"/>
	</g>
</svg>
