<?xml version="1.0" encoding="utf-8"?>
<!-- Generator: Adobe Illustrator 16.0.0, SVG Export Plug-In . SVG Version: 6.00 Build 0)  -->
<!DOCTYPE svg PUBLIC "-//W3C//DTD SVG 1.1//EN" "http://www.w3.org/Graphics/SVG/1.1/DTD/svg11.dtd">
<svg version="1.1" xmlns="http://www.w3.org/2000/svg" xmlns:xlink="http://www.w3.org/1999/xlink" x="0px" y="0px" width="24px"
	 height="24px" viewBox="0 0 24 24" enable-background="new 0 0 24 24" xml:space="preserve">
<g id="Layer_1">
	<path display="none" d="M19,6.41L17.59,5L12,10.59L6.41,5L5,6.41L10.59,12L5,17.59L6.41,19L12,13.41L17.59,19L19,17.59L13.41,12
		L19,6.41z"/>
	<path fill="none" d="M0,0h24v24H0V0z"/>
	<path d="M5.643,19.225c-0.254,0-0.508-0.097-0.702-0.291c-0.387-0.387-0.387-1.016,0-1.402l12.59-12.59
		c0.387-0.387,1.016-0.387,1.402,0c0.388,0.388,0.388,1.016,0,1.403L6.344,18.934C6.15,19.128,5.896,19.225,5.643,19.225z"/>
	<path d="M18.232,19.225c-0.254,0-0.508-0.097-0.701-0.291L4.941,6.344c-0.387-0.388-0.387-1.016,0-1.403
		c0.388-0.387,1.016-0.387,1.403,0l12.589,12.59c0.388,0.387,0.388,1.016,0,1.402C18.74,19.128,18.486,19.225,18.232,19.225z"/>
</g>
<g id="Layer_2" display="none">
	<polygon display="inline" points="13.875,12.625 13.875,5 10.125,5 10.125,12.625 7.98,12.625 12,17.188 16.021,12.625 	"/>
	<rect x="6.438" y="17.188" display="inline" width="11.125" height="1.813"/>
</g>
</svg>
